<svg width="48" height="48" viewBox="0 0 48 48" fill="none" xmlns="http://www.w3.org/2000/svg">
<rect width="48" height="47.9879" rx="12" fill="#FF842A" fill-opacity="0.72"/>
<path d="M25.3998 32C26.3491 32 27.2772 31.7185 28.0665 31.1911C28.8559 30.6636 29.4711 29.914 29.8344 29.0369C30.1977 28.1598 30.2928 27.1947 30.1075 26.2636C29.9223 25.3325 29.4652 24.4772 28.7939 23.8059C28.1226 23.1346 27.2673 22.6775 26.3362 22.4923C25.4051 22.307 24.44 22.4021 23.5629 22.7654C22.6858 23.1287 21.9362 23.7439 21.4087 24.5333C20.8813 25.3226 20.5998 26.2507 20.5998 27.2C20.6012 28.4726 21.1073 29.6927 22.0072 30.5926C22.9071 31.4925 24.1272 31.9986 25.3998 32ZM25.3998 23.2C26.1909 23.2 26.9643 23.4346 27.6221 23.8741C28.2799 24.3137 28.7925 24.9384 29.0953 25.6693C29.398 26.4002 29.4773 27.2045 29.3229 27.9804C29.1686 28.7563 28.7876 29.469 28.2282 30.0285C27.6688 30.5879 26.9561 30.9688 26.1801 31.1232C25.4042 31.2775 24.6 31.1983 23.8691 30.8955C23.1381 30.5928 22.5134 30.0801 22.0739 29.4223C21.6344 28.7645 21.3998 27.9912 21.3998 27.2C21.401 26.1395 21.8228 25.1228 22.5726 24.3729C23.3225 23.623 24.3393 23.2012 25.3998 23.2Z" fill="#FCFAF1"/>
<path d="M16.9998 24C17.7909 24 18.5643 23.7654 19.2221 23.3259C19.8799 22.8864 20.3926 22.2616 20.6953 21.5307C20.9981 20.7998 21.0773 19.9956 20.923 19.2196C20.7686 18.4437 20.3877 17.731 19.8282 17.1716C19.2688 16.6122 18.5561 16.2312 17.7802 16.0769C17.0043 15.9225 16.2 16.0017 15.4691 16.3045C14.7382 16.6072 14.1135 17.1199 13.6739 17.7777C13.2344 18.4355 12.9998 19.2089 12.9998 20C13.001 21.0605 13.4228 22.0772 14.1727 22.8271C14.9226 23.577 15.9393 23.9988 16.9998 24ZM16.9998 16.8C17.6327 16.8 18.2514 16.9877 18.7776 17.3393C19.3039 17.6909 19.714 18.1907 19.9562 18.7754C20.1984 19.3601 20.2618 20.0036 20.1383 20.6243C20.0149 21.245 19.7101 21.8152 19.2626 22.2627C18.815 22.7103 18.2448 23.015 17.6241 23.1385C17.0034 23.262 16.36 23.1986 15.7752 22.9564C15.1905 22.7142 14.6907 22.3041 14.3391 21.7778C13.9875 21.2516 13.7998 20.6329 13.7998 20C13.8008 19.1516 14.1382 18.3382 14.7381 17.7383C15.338 17.1384 16.1514 16.801 16.9998 16.8Z" fill="#FCFAF1"/>
<path fill-rule="evenodd" clip-rule="evenodd" d="M29.622 16.5393C30.1482 16.1877 30.7669 16 31.3998 16C32.2482 16.001 33.0616 16.3384 33.6615 16.9383C34.2614 17.5382 34.5989 18.3516 34.5998 19.2C34.5998 19.8329 34.4122 20.4516 34.0605 20.9778C33.7089 21.5041 33.2091 21.9142 32.6244 22.1564C32.0397 22.3986 31.3963 22.462 30.7755 22.3385C30.1548 22.215 29.5846 21.9103 29.1371 21.4627C28.6896 21.0152 28.3848 20.445 28.2613 19.8243C28.1378 19.2035 28.2012 18.5601 28.4434 17.9754C28.6856 17.3907 29.0958 16.8909 29.622 16.5393ZM29.5672 20.7481C29.9332 21.1809 30.4408 21.47 30.9998 21.564H31.7998C32.3588 21.47 32.8664 21.1809 33.2325 20.7481C33.5986 20.3154 33.7994 19.7668 33.7994 19.2C33.7994 18.6332 33.5986 18.0846 33.2325 17.6519C32.8664 17.2191 32.3588 16.93 31.7998 16.836H30.9998C30.4408 16.93 29.9332 17.2191 29.5672 17.6519C29.2011 18.0846 29.0002 18.6332 29.0002 19.2C29.0002 19.7668 29.2011 20.3154 29.5672 20.7481Z" fill="#FCFAF1"/>
</svg>
