<svg width="48" height="48" viewBox="0 0 48 48" fill="none" xmlns="http://www.w3.org/2000/svg">
<rect width="48" height="48" rx="12" fill="#C2D9CD"/>
<path d="M30.8438 19.875C30.7065 21.7814 29.2923 23.25 27.7501 23.25C26.2079 23.25 24.7914 21.7819 24.6564 19.875C24.5157 17.8917 25.8925 16.5 27.7501 16.5C29.6078 16.5 30.9845 17.9278 30.8438 19.875Z" stroke="#FCFAF1" stroke-linecap="round" stroke-linejoin="round"/>
<path d="M27.7498 26.25C24.695 26.25 21.7573 27.7673 21.0214 30.7223C20.9239 31.1133 21.169 31.5 21.5708 31.5H33.9293C34.3311 31.5 34.5748 31.1133 34.4787 30.7223C33.7428 27.72 30.8051 26.25 27.7498 26.25Z" stroke="#FCFAF1" stroke-miterlimit="10"/>
<path d="M21.375 20.7159C21.2653 22.2384 20.1225 23.4375 18.8906 23.4375C17.6587 23.4375 16.514 22.2389 16.4062 20.7159C16.2942 19.132 17.4065 18 18.8906 18C20.3746 18 21.487 19.1611 21.375 20.7159Z" stroke="#FCFAF1" stroke-linecap="round" stroke-linejoin="round"/>
<path d="M21.6567 26.3438C20.8106 25.9562 19.8787 25.8071 18.8911 25.8071C16.4536 25.8071 14.1051 27.0188 13.5169 29.379C13.4395 29.6912 13.6355 30.0001 13.9561 30.0001H19.2192" stroke="#FCFAF1" stroke-miterlimit="10" stroke-linecap="round"/>
</svg>
