<svg width="49" height="49" viewBox="0 0 49 49" fill="none" xmlns="http://www.w3.org/2000/svg">
<rect x="0.0253906" y="0.0193481" width="48" height="47.9879" rx="12" fill="#FF842A" fill-opacity="0.72"/>
<path d="M14.2754 27.7617L33.7754 27.7617C34.1896 27.7617 34.5254 27.426 34.5254 27.0118V16.5145C34.5254 16.1004 34.1896 15.7647 33.7754 15.7647L14.2754 15.7647C13.8612 15.7647 13.5254 16.1004 13.5254 16.5145V27.0118C13.5254 27.426 13.8612 27.7617 14.2754 27.7617Z" stroke="#FCFAF1" stroke-linejoin="round"/>
<path d="M15.0254 30.0111H33.0254" stroke="#FCFAF1" stroke-linecap="round" stroke-linejoin="round"/>
<path d="M16.5254 32.2605H31.5254" stroke="#FCFAF1" stroke-linecap="round" stroke-linejoin="round"/>
<path d="M24.0254 25.5122C26.0965 25.5122 27.7754 23.8337 27.7754 21.7632C27.7754 19.6926 26.0965 18.0141 24.0254 18.0141C21.9543 18.0141 20.2754 19.6926 20.2754 21.7632C20.2754 23.8337 21.9543 25.5122 24.0254 25.5122Z" stroke="#FCFAF1" stroke-linecap="round" stroke-linejoin="round"/>
<path d="M34.5254 19.5156C33.5308 19.5156 32.577 19.1205 31.8737 18.4173C31.1705 17.714 30.7754 16.7602 30.7754 15.7656" stroke="#FCFAF1" stroke-linecap="round" stroke-linejoin="round"/>
<path d="M13.5254 19.5156C14.0178 19.5156 14.5055 19.4186 14.9605 19.2302C15.4154 19.0417 15.8288 18.7655 16.177 18.4173C16.5253 18.0691 16.8015 17.6557 16.9899 17.2007C17.1784 16.7457 17.2754 16.2581 17.2754 15.7656" stroke="#FCFAF1" stroke-linecap="round" stroke-linejoin="round"/>
<path d="M34.5254 24.0126C33.5308 24.0126 32.577 24.4077 31.8737 25.1109C31.1705 25.8142 30.7754 26.768 30.7754 27.7626" stroke="#FCFAF1" stroke-linecap="round" stroke-linejoin="round"/>
<path d="M13.5254 24.0126C14.0178 24.0126 14.5055 24.1096 14.9605 24.298C15.4154 24.4865 15.8288 24.7627 16.177 25.1109C16.5253 25.4591 16.8015 25.8725 16.9899 26.3275C17.1784 26.7825 17.2754 27.2701 17.2754 27.7626" stroke="#FCFAF1" stroke-linecap="round" stroke-linejoin="round"/>
</svg>
