<svg width="49" height="48" viewBox="0 0 49 48" fill="none" xmlns="http://www.w3.org/2000/svg">
<rect x="0.00610352" width="48.0121" height="48" rx="12" fill="#FED55D" fill-opacity="0.87"/>
<path d="M28.1383 25.125L32.2643 21" stroke="#FCFAF1" stroke-linecap="round" stroke-linejoin="round"/>
<path d="M22.887 22.125L25.887 25.125" stroke="#FCFAF1" stroke-linecap="round" stroke-linejoin="round"/>
<path d="M15.7593 27L20.6355 22.125" stroke="#FCFAF1" stroke-linecap="round" stroke-linejoin="round"/>
<path d="M33.3894 21C34.0107 21 34.5144 20.4963 34.5144 19.875C34.5144 19.2537 34.0107 18.75 33.3894 18.75C32.7681 18.75 32.2644 19.2537 32.2644 19.875C32.2644 20.4963 32.7681 21 33.3894 21Z" stroke="#FCFAF1" stroke-linecap="round" stroke-linejoin="round"/>
<path d="M27.0128 27.375C27.6341 27.375 28.1378 26.8713 28.1378 26.25C28.1378 25.6287 27.6341 25.125 27.0128 25.125C26.3915 25.125 25.8878 25.6287 25.8878 26.25C25.8878 26.8713 26.3915 27.375 27.0128 27.375Z" stroke="#FCFAF1" stroke-linecap="round" stroke-linejoin="round"/>
<path d="M21.7615 22.125C22.3828 22.125 22.8865 21.6213 22.8865 21C22.8865 20.3787 22.3828 19.875 21.7615 19.875C21.1402 19.875 20.6365 20.3787 20.6365 21C20.6365 21.6213 21.1402 22.125 21.7615 22.125Z" stroke="#FCFAF1" stroke-linecap="round" stroke-linejoin="round"/>
<path d="M14.6343 29.25C15.2556 29.25 15.7593 28.7463 15.7593 28.125C15.7593 27.5037 15.2556 27 14.6343 27C14.013 27 13.5093 27.5037 13.5093 28.125C13.5093 28.7463 14.013 29.25 14.6343 29.25Z" stroke="#FCFAF1" stroke-linecap="round" stroke-linejoin="round"/>
</svg>
