<svg width="24" height="24" viewBox="0 0 24 24" fill="none" xmlns="http://www.w3.org/2000/svg">
<path d="M5.29248 5.99998C3.8371 7.62544 3.02228 9.72455 2.99982 11.9062C2.94451 16.8914 7.01467 20.9906 11.9998 21C16.9779 21.0094 20.9998 16.9767 20.9998 12C20.9998 7.09967 17.0834 3.11201 12.2108 2.99998C12.1833 2.9991 12.156 3.00375 12.1304 3.01366C12.1048 3.02356 12.0815 3.03852 12.0618 3.05764C12.0421 3.07675 12.0265 3.09964 12.0158 3.12492C12.0052 3.15021 11.9997 3.17739 11.9998 3.20483V7.12498" stroke="#FCFAF1" stroke-opacity="0.87" stroke-width="2" stroke-linecap="round" stroke-linejoin="round"/>
<path d="M10.9401 13.0608L7.23694 7.76391C7.18571 7.69052 7.16194 7.60144 7.16981 7.51228C7.17767 7.42312 7.21667 7.33958 7.27996 7.27629C7.34324 7.21301 7.42679 7.17401 7.51594 7.16615C7.6051 7.15828 7.69418 7.18205 7.76757 7.23328L13.0645 10.9364C13.3893 11.1704 13.6091 11.5229 13.6761 11.9176C13.7431 12.3124 13.652 12.7176 13.4225 13.0457C13.193 13.3738 12.8436 13.5984 12.4499 13.6709C12.0561 13.7434 11.6496 13.6579 11.3184 13.433C11.1719 13.3315 11.0439 13.2056 10.9401 13.0608Z" fill="#FCFAF1"/>
<path d="M11.348 12.7716L8.03162 8.02795L12.7748 11.344C12.9917 11.5012 13.1383 11.7372 13.1831 12.0013C13.2281 12.2665 13.167 12.5388 13.0128 12.7592C12.8586 12.9796 12.6239 13.1305 12.3594 13.1791C12.0956 13.2277 11.8233 13.1707 11.6012 13.0206C11.5033 12.9525 11.4177 12.8683 11.348 12.7716Z" stroke="#FCFAF1" stroke-opacity="0.87"/>
</svg>
